<svg width="200" height="200" xmlns="http://www.w3.org/2000/svg" viewBox="0 0 200 200">
  <defs>
    <linearGradient id="aiGradient" x1="0%" y1="0%" x2="100%" y2="100%">
      <stop offset="0%" style="stop-color:#667eea;stop-opacity:1" />
      <stop offset="100%" style="stop-color:#764ba2;stop-opacity:1" />
    </linearGradient>
  </defs>
  
  <!-- Background circle -->
  <circle cx="100" cy="100" r="95" fill="url(#aiGradient)" opacity="0.1"/>
  
  <!-- Brain/AI representation -->
  <path d="M 70 80 Q 70 60 90 60 Q 100 60 100 70 Q 100 60 110 60 Q 130 60 130 80 Q 135 85 130 95 Q 130 110 120 120 Q 110 125 100 120 Q 90 125 80 120 Q 70 110 70 95 Q 65 85 70 80 Z" 
        fill="url(#aiGradient)" opacity="0.8"/>
  
  <!-- Circuit nodes -->
  <circle cx="60" cy="100" r="8" fill="#667eea"/>
  <circle cx="140" cy="100" r="8" fill="#667eea"/>
  <circle cx="100" cy="140" r="8" fill="#764ba2"/>
  
  <!-- Connection lines -->
  <line x1="68" y1="100" x2="92" y2="100" stroke="#667eea" stroke-width="3"/>
  <line x1="108" y1="100" x2="132" y2="100" stroke="#667eea" stroke-width="3"/>
  <line x1="100" y1="128" x2="100" y2="132" stroke="#764ba2" stroke-width="3"/>
  
  <!-- Microservice boxes -->
  <rect x="40" y="150" width="30" height="25" rx="3" fill="#667eea" opacity="0.7"/>
  <rect x="85" y="150" width="30" height="25" rx="3" fill="#764ba2" opacity="0.7"/>
  <rect x="130" y="150" width="30" height="25" rx="3" fill="#667eea" opacity="0.7"/>
</svg>

