<svg width="200" height="200" xmlns="http://www.w3.org/2000/svg" viewBox="0 0 200 200">
  <defs>
    <linearGradient id="benefitsGradient" x1="0%" y1="0%" x2="100%" y2="100%">
      <stop offset="0%" style="stop-color:#3b82f6;stop-opacity:1" />
      <stop offset="100%" style="stop-color:#1d4ed8;stop-opacity:1" />
    </linearGradient>
  </defs>
  
  <!-- Background -->
  <circle cx="100" cy="100" r="95" fill="url(#benefitsGradient)" opacity="0.1"/>
  
  <!-- Government building columns -->
  <rect x="60" y="90" width="12" height="60" fill="#3b82f6"/>
  <rect x="80" y="90" width="12" height="60" fill="#3b82f6"/>
  <rect x="100" y="90" width="12" height="60" fill="#3b82f6"/>
  <rect x="120" y="90" width="12" height="60" fill="#3b82f6"/>
  
  <!-- Building base -->
  <rect x="55" y="150" width="82" height="10" fill="#1d4ed8"/>
  
  <!-- Building roof/triangle -->
  <path d="M 50 90 L 100 60 L 142 90 Z" fill="url(#benefitsGradient)"/>
  
  <!-- People icons (simplified) -->
  <circle cx="70" cy="45" r="6" fill="#3b82f6"/>
  <path d="M 70 52 L 70 65 M 65 58 L 75 58" stroke="#3b82f6" stroke-width="3" stroke-linecap="round"/>
  
  <circle cx="100" cy="40" r="6" fill="#1d4ed8"/>
  <path d="M 100 47 L 100 60 M 95 53 L 105 53" stroke="#1d4ed8" stroke-width="3" stroke-linecap="round"/>
  
  <circle cx="130" cy="45" r="6" fill="#3b82f6"/>
  <path d="M 130 52 L 130 65 M 125 58 L 135 58" stroke="#3b82f6" stroke-width="3" stroke-linecap="round"/>
</svg>

