<svg width="200" height="200" xmlns="http://www.w3.org/2000/svg" viewBox="0 0 200 200">
  <defs>
    <linearGradient id="recreationGradient" x1="0%" y1="0%" x2="100%" y2="100%">
      <stop offset="0%" style="stop-color:#f59e0b;stop-opacity:1" />
      <stop offset="100%" style="stop-color:#d97706;stop-opacity:1" />
    </linearGradient>
  </defs>
  
  <!-- Background -->
  <circle cx="100" cy="100" r="95" fill="url(#recreationGradient)" opacity="0.1"/>
  
  <!-- Mountains -->
  <path d="M 30 140 L 70 70 L 100 110 L 130 60 L 170 140 Z" fill="#f59e0b" opacity="0.6"/>
  <path d="M 50 140 L 90 80 L 120 120 L 150 75 L 170 140 Z" fill="#d97706" opacity="0.5"/>
  
  <!-- Sun -->
  <circle cx="150" cy="50" r="18" fill="#f59e0b"/>
  <line x1="150" y1="25" x2="150" y2="35" stroke="#f59e0b" stroke-width="3" stroke-linecap="round"/>
  <line x1="150" y1="65" x2="150" y2="75" stroke="#f59e0b" stroke-width="3" stroke-linecap="round"/>
  <line x1="125" y1="50" x2="135" y2="50" stroke="#f59e0b" stroke-width="3" stroke-linecap="round"/>
  <line x1="165" y1="50" x2="175" y2="50" stroke="#f59e0b" stroke-width="3" stroke-linecap="round"/>
  
  <!-- Trees -->
  <path d="M 40 140 L 40 110 L 35 115 L 40 105 L 45 115 L 40 110 Z" fill="#059669"/>
  <path d="M 160 140 L 160 115 L 155 120 L 160 110 L 165 120 L 160 115 Z" fill="#059669"/>
  
  <!-- Tent -->
  <path d="M 80 140 L 100 100 L 120 140 Z" fill="#d97706" opacity="0.8"/>
  <line x1="100" y1="100" x2="100" y2="140" stroke="#f59e0b" stroke-width="2"/>
</svg>

